# xmcd
#
# Track frame offsets: 
#        182
#        18492
#        39160
#        53947
#        87750
#        105367
#        115977
#        142395
#        162585
#        183655
#        198250
#        222877
#        243965
#        262267
#        283147
#        300415
#
# Disc length: 4319 seconds
#
# Revision: 1
# Processed by: cddbd v1.5.2PL0 Copyright (c) Steve Scherf et al.
# Submitted via: ExactAudioCopy v0.99pb5
#
DISCID=e910dd10
DTITLE=CALVIN RUSSELL - This Is My Life
DYEAR=1997
DGENRE=Classic Rock
TTITLE0=This Is My Life
TTITLE1=Crack In Time
TTITLE2=Big Brother
TTITLE3=Crossroads
TTITLE4=One Meat Ball
TTITLE5=Baby I Love You
TTITLE6=Soldier
TTITLE7=Rats And Roaches
TTITLE8=This Is Your World
TTITLE9=Don't Turn Your Head
TTITLE10=Trouble
TTITLE11=Valley Far Below
TTITLE12=Texas Song
TTITLE13=Let The Music Play
TTITLE14=It's All Over Now
TTITLE15=Forever Young
EXTD=(c) 1997 Sony Music: COL 488772 2.\n\nProduced by Joe Gracey (1-6
EXTD=), Jim Dickinson (7-9, 13-14), Calvin Russell\nand Mike Stewart (
EXTD=10-12), Stanley Kimberlin (15-16) YEAR: 1997 ID3G: 0
EXTT0=
EXTT1=
EXTT2=
EXTT3=written by Saylor White
EXTT4=
EXTT5=
EXTT6=
EXTT7=
EXTT8=
EXTT9=
EXTT10=
EXTT11=
EXTT12=
EXTT13=
EXTT14=
EXTT15=
PLAYORDER=
